<svg id="svg" version="1.1" xmlns="http://www.w3.org/2000/svg" width="400" height="400"
     viewBox="0, 0, 400,400">
    <g id="svgg">
        <path id="path0"
              d="M162.000 82.991 L 162.000 94.387 172.700 94.493 L 183.400 94.600 183.625 199.000 C 183.791 276.189,183.970 303.921,184.314 305.400 C 184.778 307.398,185.283 309.313,185.842 311.200 C 188.130 318.917,195.675 325.882,203.600 327.594 C 204.810 327.856,206.451 328.234,207.246 328.435 C 209.370 328.971,306.741 328.914,309.123 328.375 C 313.855 327.305,314.705 327.065,316.296 326.356 C 317.228 325.940,318.173 325.600,318.396 325.600 C 318.618 325.600,318.800 325.464,318.800 325.298 C 318.800 325.131,319.378 324.739,320.085 324.427 C 321.626 323.744,326.410 319.052,327.262 317.386 C 327.596 316.734,328.232 315.567,328.676 314.793 C 329.119 314.019,329.852 312.309,330.304 310.993 C 331.084 308.725,331.393 307.452,332.379 302.469 C 332.667 301.011,332.800 267.946,332.800 197.612 C 332.800 104.308,332.858 94.863,333.433 94.643 C 333.781 94.509,338.641 94.400,344.233 94.400 L 354.400 94.400 354.400 82.998 L 354.400 71.596 318.700 71.698 L 283.000 71.800 282.894 83.094 L 282.788 94.387 293.894 94.494 L 305.000 94.600 305.101 199.976 C 305.181 284.013,305.100 305.416,304.701 305.670 C 303.827 306.225,212.237 306.077,211.680 305.520 C 211.171 305.011,210.936 96.354,211.443 95.033 C 211.656 94.477,213.021 94.400,222.649 94.400 L 233.612 94.400 233.506 83.100 L 233.400 71.800 197.700 71.698 L 162.000 71.596 162.000 82.991 M71.656 95.332 C 71.332 95.723,71.176 104.532,71.102 126.638 L 71.000 157.400 58.600 157.600 L 46.200 157.800 46.200 169.800 L 46.200 181.800 58.700 181.906 L 71.200 182.011 71.220 237.906 C 71.240 294.462,71.362 299.982,72.755 307.400 C 74.381 316.059,78.930 322.527,85.682 325.777 C 87.870 326.831,88.806 327.135,92.800 328.091 C 93.890 328.352,101.659 328.583,112.500 328.677 L 130.400 328.831 130.400 317.416 L 130.400 306.000 114.449 306.000 C 101.509 306.000,98.413 305.898,98.048 305.457 C 97.717 305.059,97.624 288.573,97.699 243.557 L 97.800 182.200 111.700 182.095 L 125.600 181.990 125.600 169.795 L 125.600 157.600 112.276 157.600 C 102.245 157.600,98.786 157.476,98.276 157.100 C 97.653 156.639,97.592 154.192,97.500 125.800 L 97.400 95.000 84.754 94.894 C 74.487 94.809,72.022 94.891,71.656 95.332 "
              stroke="none" fill="#262623" fill-rule="evenodd"></path>
        <path id="path1"
              d="M30.300 0.290 C 29.475 0.377,28.800 0.617,28.800 0.824 C 28.800 1.031,28.260 1.200,27.600 1.200 C 26.940 1.200,26.400 1.380,26.400 1.600 C 26.400 1.820,25.860 2.000,25.200 2.000 C 24.540 2.000,24.000 2.180,24.000 2.400 C 24.000 2.620,23.640 2.800,23.200 2.800 C 22.760 2.800,22.400 2.980,22.400 3.200 C 22.400 3.420,22.040 3.600,21.600 3.600 C 21.160 3.600,20.800 3.780,20.800 4.000 C 20.800 4.220,20.440 4.400,20.000 4.400 C 19.560 4.400,19.200 4.550,19.200 4.732 C 19.200 4.915,18.705 5.319,18.100 5.630 C 17.495 5.940,16.709 6.511,16.353 6.897 C 15.997 7.284,15.488 7.600,15.221 7.600 C 14.587 7.600,7.600 14.587,7.600 15.221 C 7.600 15.488,7.284 15.997,6.897 16.353 C 6.511 16.709,5.940 17.495,5.630 18.100 C 5.319 18.705,4.915 19.200,4.732 19.200 C 4.550 19.200,4.400 19.560,4.400 20.000 C 4.400 20.440,4.220 20.800,4.000 20.800 C 3.780 20.800,3.600 21.160,3.600 21.600 C 3.600 22.040,3.420 22.400,3.200 22.400 C 2.980 22.400,2.800 22.760,2.800 23.200 C 2.800 23.640,2.620 24.000,2.400 24.000 C 2.180 24.000,2.000 24.540,2.000 25.200 C 2.000 25.860,1.820 26.400,1.600 26.400 C 1.380 26.400,1.200 26.814,1.200 27.320 C 1.200 27.826,0.975 28.465,0.700 28.740 C -0.036 29.476,-0.036 370.524,0.700 371.260 C 0.975 371.535,1.200 372.163,1.200 372.656 C 1.200 373.149,1.380 373.664,1.600 373.800 C 1.820 373.936,2.000 374.487,2.000 375.024 C 2.000 375.561,2.180 376.000,2.400 376.000 C 2.620 376.000,2.800 376.360,2.800 376.800 C 2.800 377.240,2.980 377.600,3.200 377.600 C 3.420 377.600,3.600 377.960,3.600 378.400 C 3.600 378.840,3.780 379.200,4.000 379.200 C 4.220 379.200,4.400 379.560,4.400 380.000 C 4.400 380.440,4.550 380.800,4.732 380.800 C 4.915 380.800,5.319 381.295,5.630 381.900 C 5.940 382.505,6.511 383.291,6.897 383.647 C 7.284 384.003,7.600 384.506,7.600 384.766 C 7.600 385.437,14.487 392.395,15.153 392.398 C 15.457 392.399,15.997 392.716,16.353 393.103 C 16.709 393.489,17.495 394.060,18.100 394.370 C 18.705 394.681,19.200 395.085,19.200 395.268 C 19.200 395.450,19.560 395.600,20.000 395.600 C 20.440 395.600,20.800 395.780,20.800 396.000 C 20.800 396.220,21.160 396.400,21.600 396.400 C 22.040 396.400,22.400 396.580,22.400 396.800 C 22.400 397.020,22.760 397.200,23.200 397.200 C 23.640 397.200,24.000 397.380,24.000 397.600 C 24.000 397.820,24.540 398.000,25.200 398.000 C 25.860 398.000,26.400 398.180,26.400 398.400 C 26.400 398.620,26.814 398.800,27.320 398.800 C 27.826 398.800,28.465 399.025,28.740 399.300 C 29.476 400.036,371.255 400.036,371.500 399.300 C 371.592 399.025,372.091 398.800,372.610 398.800 C 373.128 398.800,373.664 398.620,373.800 398.400 C 373.936 398.180,374.487 398.000,375.024 398.000 C 375.561 398.000,376.000 397.820,376.000 397.600 C 376.000 397.380,376.360 397.200,376.800 397.200 C 377.240 397.200,377.600 397.020,377.600 396.800 C 377.600 396.580,377.960 396.400,378.400 396.400 C 378.840 396.400,379.200 396.220,379.200 396.000 C 379.200 395.780,379.560 395.600,380.000 395.600 C 380.440 395.600,380.800 395.450,380.800 395.268 C 380.800 395.085,381.295 394.681,381.900 394.370 C 382.505 394.060,383.291 393.489,383.647 393.103 C 384.003 392.716,384.503 392.400,384.758 392.400 C 385.763 392.400,392.400 385.763,392.400 384.758 C 392.400 384.503,392.716 384.003,393.103 383.647 C 393.489 383.291,394.060 382.505,394.370 381.900 C 394.681 381.295,395.085 380.800,395.268 380.800 C 395.450 380.800,395.600 380.440,395.600 380.000 C 395.600 379.560,395.780 379.200,396.000 379.200 C 396.220 379.200,396.400 378.840,396.400 378.400 C 396.400 377.960,396.580 377.600,396.800 377.600 C 397.020 377.600,397.200 377.240,397.200 376.800 C 397.200 376.360,397.380 376.000,397.600 376.000 C 397.820 376.000,398.000 375.561,398.000 375.024 C 398.000 374.487,398.180 373.936,398.400 373.800 C 398.620 373.664,398.800 373.149,398.800 372.656 C 398.800 372.163,399.025 371.535,399.300 371.260 C 400.036 370.524,400.036 29.476,399.300 28.740 C 399.025 28.465,398.800 27.826,398.800 27.320 C 398.800 26.814,398.620 26.400,398.400 26.400 C 398.180 26.400,398.000 25.860,398.000 25.200 C 398.000 24.540,397.820 24.000,397.600 24.000 C 397.380 24.000,397.200 23.640,397.200 23.200 C 397.200 22.760,397.020 22.400,396.800 22.400 C 396.580 22.400,396.400 22.040,396.400 21.600 C 396.400 21.160,396.220 20.800,396.000 20.800 C 395.780 20.800,395.600 20.440,395.600 20.000 C 395.600 19.560,395.450 19.200,395.268 19.200 C 395.085 19.200,394.681 18.705,394.370 18.100 C 394.060 17.495,393.489 16.709,393.103 16.353 C 392.716 15.997,392.399 15.457,392.398 15.153 C 392.395 14.487,385.437 7.600,384.766 7.600 C 384.506 7.600,384.003 7.284,383.647 6.897 C 383.291 6.511,382.505 5.940,381.900 5.630 C 381.295 5.319,380.800 4.915,380.800 4.732 C 380.800 4.550,380.440 4.400,380.000 4.400 C 379.560 4.400,379.200 4.220,379.200 4.000 C 379.200 3.780,378.840 3.600,378.400 3.600 C 377.960 3.600,377.600 3.420,377.600 3.200 C 377.600 2.980,377.240 2.800,376.800 2.800 C 376.360 2.800,376.000 2.620,376.000 2.400 C 376.000 2.180,375.561 2.000,375.024 2.000 C 374.487 2.000,373.936 1.820,373.800 1.600 C 373.664 1.380,373.149 1.200,372.656 1.200 C 372.163 1.200,371.535 0.975,371.260 0.700 C 370.787 0.227,34.721 -0.177,30.300 0.290 M233.906 82.773 C 233.989 91.924,233.900 94.617,233.506 94.866 C 233.228 95.043,228.275 95.191,222.500 95.194 L 212.000 95.200 212.000 200.200 L 212.000 305.200 258.200 305.200 L 304.400 305.200 304.400 200.200 L 304.400 95.200 293.900 95.194 C 288.125 95.191,283.172 95.043,282.894 94.866 C 282.500 94.617,282.411 91.924,282.494 82.773 L 282.600 71.000 318.356 70.898 C 344.443 70.823,354.260 70.918,354.656 71.247 C 355.400 71.864,355.460 93.980,354.720 94.720 C 354.371 95.069,351.415 95.200,343.929 95.200 L 333.618 95.200 333.480 198.500 C 333.332 309.405,333.463 302.280,331.445 309.400 C 330.748 311.862,328.442 316.895,327.902 317.133 C 327.736 317.207,327.600 317.482,327.600 317.745 C 327.600 319.052,320.888 325.004,318.000 326.259 C 310.435 329.544,310.661 329.532,258.000 329.539 C 214.018 329.544,203.367 329.241,202.574 327.958 C 202.452 327.761,202.001 327.600,201.571 327.600 C 201.141 327.600,200.477 327.441,200.095 327.247 C 199.713 327.052,198.860 326.648,198.200 326.347 C 197.540 326.047,196.910 325.711,196.800 325.600 C 196.690 325.489,196.070 325.129,195.422 324.799 C 191.179 322.641,186.420 315.572,184.614 308.742 C 182.814 301.939,182.801 301.118,182.800 195.707 L 182.800 95.213 172.300 95.107 L 161.800 95.000 161.694 83.405 C 161.635 77.028,161.675 71.582,161.782 71.303 C 161.937 70.898,169.188 70.816,197.888 70.898 L 233.800 71.000 233.906 82.773 M98.302 125.695 L 98.405 156.790 112.102 156.895 L 125.800 157.000 125.800 169.600 L 125.800 182.200 112.100 182.305 L 98.400 182.411 98.400 243.805 L 98.400 305.200 114.320 305.200 C 126.169 305.200,130.363 305.323,130.720 305.680 C 131.737 306.697,131.367 328.683,130.323 329.241 C 129.140 329.874,95.340 329.472,93.000 328.797 C 87.865 327.316,85.690 326.576,84.800 326.009 C 84.250 325.658,83.315 325.128,82.722 324.830 C 80.382 323.655,74.800 317.082,74.800 315.502 C 74.800 315.204,74.638 314.789,74.439 314.580 C 73.979 314.096,72.852 310.736,72.365 308.400 C 70.830 301.027,70.807 300.022,70.803 240.300 L 70.800 182.400 58.480 182.400 C 49.431 182.400,46.033 182.273,45.680 181.920 C 45.055 181.295,44.994 158.733,45.614 157.574 C 46.010 156.834,46.578 156.800,58.414 156.800 L 70.800 156.800 70.800 125.867 C 70.800 108.853,70.922 94.811,71.072 94.661 C 71.221 94.512,77.386 94.437,84.772 94.495 L 98.200 94.600 98.302 125.695 "
              stroke="none" fill="#fbfb04" fill-rule="evenodd"></path>
        <path id="path2"
              d="M161.781 71.705 C 161.674 71.983,161.635 77.248,161.694 83.405 L 161.800 94.600 172.400 94.800 L 183.000 95.000 183.202 197.200 L 183.403 299.400 183.402 197.000 L 183.400 94.600 172.700 94.493 L 162.000 94.387 162.000 82.991 L 162.000 71.596 197.700 71.698 L 233.400 71.800 233.506 83.100 L 233.612 94.400 222.649 94.400 C 213.021 94.400,211.656 94.477,211.443 95.033 C 210.936 96.354,211.171 305.011,211.680 305.520 C 212.237 306.077,303.827 306.225,304.701 305.670 C 305.100 305.416,305.181 284.013,305.101 199.976 L 305.000 94.600 293.900 94.590 L 282.800 94.581 293.801 94.697 L 304.801 94.813 304.701 200.106 L 304.600 305.400 258.200 305.400 L 211.800 305.400 211.800 200.200 L 211.800 95.000 222.800 94.800 L 233.800 94.600 233.912 83.800 C 233.974 77.860,233.926 72.595,233.805 72.100 L 233.585 71.200 197.780 71.200 C 169.301 71.200,161.935 71.303,161.781 71.705 M282.800 71.500 C 282.800 71.665,298.910 71.753,318.600 71.696 L 354.400 71.592 354.400 82.996 L 354.400 94.400 344.233 94.400 C 338.641 94.400,333.781 94.509,333.433 94.643 C 332.858 94.863,332.809 104.191,332.899 196.943 L 332.998 299.000 333.199 197.000 L 333.400 95.000 344.000 94.800 L 354.600 94.600 354.706 82.900 L 354.812 71.200 318.806 71.200 C 299.003 71.200,282.800 71.335,282.800 71.500 M97.505 125.685 C 97.563 142.672,97.743 156.703,97.905 156.865 C 98.067 157.027,98.153 143.129,98.095 125.980 C 98.038 108.831,97.858 94.800,97.695 94.800 C 97.533 94.800,97.447 108.698,97.505 125.685 M58.620 157.100 C 49.333 157.184,46.162 157.335,45.926 157.706 C 45.525 158.338,45.500 181.491,45.900 181.738 C 46.065 181.840,46.200 176.496,46.200 169.862 L 46.200 157.800 58.386 157.694 C 65.704 157.630,70.729 157.431,70.966 157.194 C 71.183 156.977,71.279 156.842,71.180 156.894 C 71.081 156.946,65.429 157.038,58.620 157.100 M112.094 157.497 L 125.588 157.611 125.703 169.705 L 125.817 181.800 125.809 169.600 L 125.800 157.400 112.200 157.392 L 98.600 157.384 112.094 157.497 M97.867 182.267 C 97.344 182.789,97.556 304.996,98.080 305.520 C 98.437 305.877,102.631 306.000,114.480 306.000 L 130.400 306.000 130.400 317.396 L 130.400 328.791 113.500 328.902 L 96.600 329.013 113.600 329.007 L 130.600 329.000 130.600 317.400 L 130.600 305.800 114.400 305.600 L 98.200 305.400 98.200 243.700 C 98.200 209.765,98.185 182.000,98.167 182.000 C 98.148 182.000,98.013 182.120,97.867 182.267 M71.296 297.400 C 71.282 298.720,71.410 300.700,71.582 301.800 L 71.893 303.800 71.900 302.000 C 71.903 301.010,71.775 299.030,71.614 297.600 L 71.322 295.000 71.296 297.400 M332.200 302.800 C 332.046 303.710,332.011 304.544,332.121 304.654 C 332.231 304.764,332.446 304.110,332.600 303.200 C 332.754 302.290,332.789 301.456,332.679 301.346 C 332.569 301.236,332.354 301.890,332.200 302.800 M183.687 302.800 C 183.683 303.350,183.824 304.250,184.000 304.800 C 184.431 306.144,184.431 304.692,184.000 303.000 C 183.726 301.922,183.694 301.902,183.687 302.800 M72.068 305.400 C 72.074 305.840,72.224 306.650,72.400 307.200 L 72.720 308.200 72.732 307.200 C 72.738 306.650,72.589 305.840,72.400 305.400 L 72.056 304.600 72.068 305.400 M331.429 307.029 C 331.281 307.615,331.238 308.172,331.332 308.266 C 331.427 308.360,331.624 307.958,331.771 307.371 C 331.919 306.785,331.962 306.228,331.868 306.134 C 331.773 306.040,331.576 306.442,331.429 307.029 M184.456 307.200 C 184.456 307.530,184.611 308.160,184.800 308.600 C 185.017 309.104,185.144 309.178,185.144 308.800 C 185.144 308.470,184.989 307.840,184.800 307.400 C 184.583 306.896,184.456 306.822,184.456 307.200 M72.856 309.200 C 72.856 309.530,73.011 310.160,73.200 310.600 C 73.417 311.104,73.544 311.178,73.544 310.800 C 73.544 310.470,73.389 309.840,73.200 309.400 C 72.983 308.896,72.856 308.822,72.856 309.200 M74.969 315.387 C 76.016 317.894,79.146 322.027,80.763 323.040 C 81.384 323.429,81.091 322.989,80.034 321.945 C 78.155 320.089,75.200 315.820,75.200 314.962 C 75.200 314.679,75.011 314.330,74.779 314.187 C 74.548 314.044,74.633 314.584,74.969 315.387 M186.800 314.153 C 186.800 314.582,187.990 316.800,188.221 316.800 C 188.331 316.800,188.123 316.215,187.759 315.500 C 187.017 314.040,186.800 313.736,186.800 314.153 M327.814 316.235 C 327.441 316.804,327.227 317.361,327.339 317.472 C 327.450 317.583,327.829 317.118,328.181 316.437 C 328.959 314.933,328.744 314.815,327.814 316.235 M324.813 320.500 C 323.623 321.875,323.151 322.550,323.764 322.000 C 324.876 321.003,327.397 318.000,327.123 318.000 C 327.043 318.000,326.004 319.125,324.813 320.500 M190.322 319.900 C 190.977 320.725,191.928 321.760,192.436 322.200 C 192.944 322.640,192.479 321.965,191.403 320.700 C 189.213 318.124,188.490 317.589,190.322 319.900 M193.967 323.345 C 194.500 324.001,196.000 324.993,196.000 324.689 C 196.000 324.613,195.415 324.122,194.700 323.599 C 193.896 323.010,193.616 322.913,193.967 323.345 M321.000 323.850 C 320.281 324.462,320.134 324.705,320.633 324.457 C 321.366 324.093,322.741 322.776,322.349 322.814 C 322.267 322.822,321.660 323.288,321.000 323.850 M84.303 325.417 C 85.252 326.082,87.776 327.206,88.287 327.191 C 88.598 327.182,83.973 324.826,83.611 324.809 C 83.507 324.804,83.818 325.078,84.303 325.417 M196.400 324.992 C 196.400 325.260,199.192 326.640,200.400 326.970 C 200.950 327.120,200.320 326.697,199.000 326.031 C 196.378 324.706,196.400 324.715,196.400 324.992 M316.500 326.234 C 315.785 326.546,315.200 326.894,315.200 327.007 C 315.200 327.215,318.006 326.127,318.346 325.787 C 318.686 325.447,317.820 325.657,316.500 326.234 M202.200 327.600 C 202.640 327.789,203.270 327.944,203.600 327.944 C 203.978 327.944,203.904 327.817,203.400 327.600 C 202.960 327.411,202.330 327.256,202.000 327.256 C 201.622 327.256,201.696 327.383,202.200 327.600 M312.600 327.600 C 312.096 327.817,312.022 327.944,312.400 327.944 C 312.730 327.944,313.360 327.789,313.800 327.600 C 314.304 327.383,314.378 327.256,314.000 327.256 C 313.670 327.256,313.040 327.411,312.600 327.600 M92.600 328.400 C 93.260 328.568,94.250 328.709,94.800 328.713 L 95.800 328.720 94.800 328.400 C 94.250 328.224,93.260 328.083,92.600 328.087 L 91.400 328.095 92.600 328.400 M205.600 328.400 C 206.150 328.576,206.960 328.726,207.400 328.732 L 208.200 328.744 207.400 328.400 C 206.960 328.211,206.150 328.062,205.600 328.068 L 204.600 328.080 205.600 328.400 M308.800 328.400 C 307.456 328.831,308.908 328.831,310.600 328.400 C 311.678 328.126,311.698 328.094,310.800 328.087 C 310.250 328.083,309.350 328.224,308.800 328.400 M233.500 329.100 C 246.975 329.158,269.025 329.158,282.500 329.100 C 295.975 329.042,284.950 328.994,258.000 328.994 C 231.050 328.994,220.025 329.042,233.500 329.100 "
              stroke="none" fill="#9c9c0c" fill-rule="evenodd"></path>
        <path id="path3"
              d="M161.863 71.098 C 161.760 71.264,177.802 71.353,197.512 71.296 C 225.982 71.213,233.421 71.295,233.704 71.696 C 233.971 72.073,234.020 72.049,233.897 71.600 C 233.719 70.946,162.265 70.448,161.863 71.098 M282.581 71.305 C 282.475 71.583,282.438 77.028,282.500 83.405 L 282.613 95.000 282.706 83.102 L 282.800 71.204 318.700 71.100 L 354.600 70.996 318.687 70.898 C 290.070 70.820,282.736 70.903,282.581 71.305 M354.797 83.000 L 354.600 94.600 344.000 94.800 L 333.400 95.000 333.399 196.300 L 333.398 297.600 333.500 196.400 L 333.602 95.200 343.952 95.200 C 352.233 95.200,354.393 95.090,354.757 94.651 C 355.080 94.263,355.181 90.797,355.103 82.751 L 354.993 71.400 354.797 83.000 M71.072 94.661 C 70.922 94.811,70.800 108.853,70.800 125.867 L 70.800 156.800 58.414 156.800 C 46.578 156.800,46.010 156.834,45.614 157.574 C 44.994 158.733,45.055 181.295,45.680 181.920 C 46.033 182.273,49.431 182.400,58.479 182.400 L 70.797 182.400 70.901 241.100 L 71.004 299.800 71.002 241.000 L 71.000 182.200 58.400 182.000 L 45.800 181.800 45.688 170.400 C 45.626 164.130,45.674 158.598,45.794 158.106 L 46.012 157.211 58.506 157.106 L 71.000 157.000 71.102 125.900 L 71.205 94.800 84.600 94.800 L 97.995 94.800 98.098 125.900 L 98.200 157.000 112.062 157.200 C 119.686 157.310,125.841 157.265,125.739 157.100 C 125.636 156.935,119.445 156.800,111.979 156.800 L 98.405 156.800 98.302 125.700 L 98.200 94.600 84.772 94.495 C 77.386 94.437,71.221 94.512,71.072 94.661 M161.861 94.900 C 161.964 95.065,166.716 95.200,172.423 95.200 L 182.798 95.200 182.900 196.500 L 183.002 297.800 183.001 196.400 L 183.000 95.000 172.338 94.800 C 166.473 94.690,161.759 94.735,161.861 94.900 M211.785 95.300 C 211.681 95.575,211.641 142.960,211.698 200.600 L 211.800 305.400 258.200 305.400 L 304.600 305.400 304.701 200.100 L 304.801 94.800 293.901 94.893 L 283.000 94.986 293.700 95.100 L 304.400 95.213 304.400 200.207 L 304.400 305.200 258.200 305.200 L 212.000 305.200 212.000 200.207 L 212.000 95.213 222.700 95.100 L 233.400 94.986 222.687 94.893 C 214.416 94.821,211.932 94.914,211.785 95.300 M98.185 182.500 C 98.080 182.775,98.041 210.540,98.097 244.200 L 98.200 305.400 114.400 305.600 L 130.600 305.800 130.600 317.462 C 130.600 323.876,130.735 329.040,130.900 328.938 C 131.435 328.608,131.262 306.222,130.720 305.680 C 130.363 305.323,126.169 305.200,114.320 305.200 L 98.400 305.200 98.400 243.805 L 98.400 182.411 112.100 182.300 L 125.800 182.189 112.087 182.095 C 101.415 182.021,98.333 182.111,98.185 182.500 M332.914 300.600 C 332.917 301.700,332.995 302.103,333.087 301.495 C 333.179 300.886,333.177 299.986,333.082 299.495 C 332.987 299.003,332.911 299.500,332.914 300.600 M183.314 301.000 C 183.317 302.100,183.395 302.503,183.487 301.895 C 183.579 301.286,183.577 300.386,183.482 299.895 C 183.387 299.403,183.311 299.900,183.314 301.000 M71.693 304.800 C 71.693 305.570,71.775 305.885,71.876 305.500 C 71.976 305.115,71.976 304.485,71.876 304.100 C 71.775 303.715,71.693 304.030,71.693 304.800 M183.680 304.600 C 183.680 305.040,183.824 305.850,184.000 306.400 C 184.254 307.192,184.320 307.233,184.320 306.600 C 184.320 306.160,184.176 305.350,184.000 304.800 C 183.746 304.008,183.680 303.967,183.680 304.600 M188.243 317.527 C 188.659 318.257,189.348 319.157,189.774 319.527 C 190.224 319.918,190.066 319.531,189.396 318.600 C 187.793 316.374,187.350 315.961,188.243 317.527 M190.400 320.525 C 190.400 320.594,190.985 321.179,191.700 321.825 L 193.000 323.000 191.825 321.700 C 190.730 320.488,190.400 320.216,190.400 320.525 M81.585 323.956 C 82.347 324.640,83.136 325.200,83.339 325.200 C 83.542 325.200,83.189 324.808,82.554 324.328 C 80.561 322.823,80.147 322.664,81.585 323.956 M319.400 325.200 C 318.740 325.637,318.380 325.992,318.600 325.988 C 319.001 325.982,321.176 324.423,320.800 324.412 C 320.690 324.408,320.060 324.763,319.400 325.200 M202.741 328.101 C 202.943 328.303,203.533 328.401,204.054 328.319 C 204.855 328.193,204.798 328.137,203.687 327.952 C 202.893 327.821,202.519 327.879,202.741 328.101 M312.400 328.000 C 311.576 328.264,311.541 328.326,312.200 328.354 C 312.640 328.373,313.270 328.213,313.600 328.000 C 314.301 327.547,313.814 327.547,312.400 328.000 M308.200 328.800 L 306.600 329.086 308.000 329.137 C 308.770 329.165,309.670 329.013,310.000 328.800 C 310.655 328.377,310.562 328.377,308.200 328.800 M94.705 329.083 C 95.202 329.179,95.922 329.175,96.305 329.075 C 96.687 328.975,96.280 328.896,95.400 328.901 C 94.520 328.905,94.207 328.987,94.705 329.083 M207.300 329.076 C 207.685 329.176,208.315 329.176,208.700 329.076 C 209.085 328.975,208.770 328.893,208.000 328.893 C 207.230 328.893,206.915 328.975,207.300 329.076 M108.726 329.500 C 112.755 329.565,119.235 329.565,123.126 329.499 C 127.017 329.434,123.720 329.380,115.800 329.381 C 107.880 329.381,104.697 329.434,108.726 329.500 M235.700 329.500 C 247.965 329.559,268.035 329.559,280.300 329.500 C 292.565 329.441,282.530 329.393,258.000 329.393 C 233.470 329.393,223.435 329.441,235.700 329.500 "
              stroke="none" fill="#a5a50c" fill-rule="evenodd"></path>
    </g>
</svg>